<svg width="243" height="342" viewBox="0 0 243 342" fill="none" xmlns="http://www.w3.org/2000/svg">
<path d="M123.43 200.86C178.896 200.86 223.86 155.896 223.86 100.43C223.86 44.964 178.896 0 123.43 0C67.964 0 23 44.964 23 100.43C23 155.896 67.964 200.86 123.43 200.86Z" fill="#E30613"/>
<path d="M166.481 113.3C168.521 136.17 151.571 156.44 128.701 158.47C108.371 160.28 90.1113 147.1 84.8613 128.09C84.9713 128.18 85.0713 128.26 85.1713 128.34C85.6613 128.74 86.1413 129.13 86.6413 129.52C86.8013 129.64 86.9613 129.77 87.1213 129.89C87.7413 130.36 88.3613 130.82 89.0013 131.26C89.1313 131.35 89.2713 131.44 89.4013 131.53C89.9313 131.9 90.4713 132.25 91.0113 132.6C91.1913 132.71 91.3813 132.83 91.5613 132.94C92.2213 133.35 92.8913 133.76 93.5713 134.14C93.6413 134.18 93.7113 134.22 93.7913 134.26C94.4013 134.61 95.0313 134.94 95.6613 135.26C95.8613 135.36 96.0513 135.46 96.2513 135.56C96.8813 135.88 97.5213 136.18 98.1713 136.47C98.2413 136.51 98.3213 136.55 98.4013 136.58C99.1113 136.9 99.8313 137.2 100.551 137.49C100.751 137.57 100.961 137.65 101.161 137.73C101.751 137.96 102.351 138.18 102.961 138.39C103.121 138.44 103.281 138.5 103.431 138.56C104.161 138.8 104.901 139.04 105.641 139.25C105.841 139.31 106.051 139.37 106.251 139.43C106.841 139.59 107.431 139.75 108.021 139.9C108.231 139.95 108.441 140 108.661 140.05C109.401 140.23 110.151 140.39 110.901 140.54C111.091 140.58 111.291 140.61 111.481 140.64C112.081 140.75 112.681 140.86 113.281 140.95C113.531 140.98 113.781 141.02 114.031 141.06C114.791 141.16 115.551 141.26 116.321 141.33C116.451 141.35 116.591 141.35 116.731 141.37C117.391 141.43 118.051 141.47 118.721 141.51C118.981 141.52 119.231 141.54 119.491 141.55C120.171 141.58 120.841 141.59 121.521 141.6C121.651 141.6 121.781 141.61 121.911 141.61H121.951C122.091 141.61 122.231 141.6 122.371 141.6C123.111 141.59 123.851 141.58 124.591 141.55H125.121C125.301 141.55 125.461 141.55 125.631 141.55C125.761 141.55 125.901 141.55 126.041 141.54C126.431 141.53 126.811 141.51 127.181 141.47C133.711 140.89 139.631 137.8 143.841 132.76C148.051 127.73 150.051 121.36 149.471 114.83C149.431 114.35 149.371 113.88 149.301 113.41C148.431 107.44 145.421 102.06 140.781 98.19L140.761 98.17C140.761 98.17 140.741 98.17 140.741 98.15L140.591 98.03C135.881 94.13 130.041 92.14 123.971 92.38C123.551 92.4 123.141 92.43 122.731 92.46C120.481 92.67 118.281 91.98 116.531 90.53C114.821 89.07 113.761 87.03 113.561 84.79C113.151 80.1 116.621 75.95 121.311 75.53C121.821 75.49 122.321 75.46 122.901 75.43C123.611 75.39 124.321 75.38 125.021 75.38C137.801 75.38 149.801 81.24 157.671 91.22C158.801 92.64 159.841 94.14 160.791 95.72C162.401 98.41 163.681 101.23 164.631 104.17C165.581 107.11 166.201 110.17 166.481 113.31V113.3Z" fill="white"/>
<path d="M162.12 72.86C162.04 72.8 161.96 72.74 161.89 72.67C161.35 72.23 160.81 71.79 160.25 71.36C159.96 71.13 159.65 70.91 159.35 70.69C159.04 70.46 158.72 70.22 158.41 70C158.07 69.76 157.73 69.52 157.39 69.29C157.1 69.09 156.81 68.91 156.52 68.72C155.85 68.27 155.16 67.85 154.47 67.44C154.25 67.3 154.03 67.17 153.8 67.04C153.39 66.8 152.97 66.57 152.54 66.34C152.31 66.21 152.08 66.09 151.85 65.97C151.41 65.74 150.97 65.51 150.52 65.28C150.39 65.22 150.26 65.16 150.14 65.1C149.2 64.65 148.25 64.22 147.29 63.82C147.14 63.75 146.99 63.69 146.84 63.63C146.34 63.43 145.85 63.23 145.35 63.04C145.17 62.98 144.99 62.91 144.81 62.85C143.22 62.27 141.6 61.75 139.96 61.31C139.77 61.26 139.57 61.21 139.38 61.16C138.87 61.03 138.37 60.91 137.86 60.79C137.65 60.74 137.45 60.7 137.25 60.66C136.31 60.45 135.36 60.27 134.41 60.12C134.2 60.08 133.99 60.04 133.78 60.01C133.32 59.94 132.86 59.88 132.4 59.82C132.07 59.78 131.75 59.74 131.42 59.71C130.99 59.66 130.56 59.61 130.12 59.57C129.64 59.53 129.15 59.5 128.66 59.47C128.15 59.43 127.64 59.41 127.13 59.39C126.62 59.37 126.11 59.36 125.59 59.35H124.63C124.05 59.35 123.46 59.37 122.87 59.39C122.71 59.4 122.55 59.39 122.39 59.4C122.11 59.39 121.84 59.4 121.57 59.4C121.43 59.4 121.29 59.4 121.15 59.4C120.69 59.41 120.23 59.43 119.79 59.47C113.27 60.05 107.35 63.15 103.14 68.19C98.9204 73.22 96.9204 79.59 97.5004 86.12C97.5504 86.6 97.6104 87.08 97.6804 87.55C98.5604 93.52 101.56 98.89 106.2 102.76C106.2 102.77 106.21 102.77 106.22 102.78C106.22 102.78 106.22 102.78 106.24 102.8L106.39 102.92C110.78 106.56 116.17 108.53 121.79 108.58C122.6 108.59 123.42 108.56 124.25 108.48C126.5 108.28 128.7 108.97 130.45 110.42C132.16 111.88 133.21 113.92 133.41 116.15C133.44 116.45 133.45 116.74 133.45 117.03C133.44 117.32 133.43 117.6 133.39 117.88C133.36 118.16 133.32 118.44 133.26 118.72C132.49 122.27 129.48 125.08 125.67 125.42C125.15 125.46 124.63 125.49 124.08 125.52C123.38 125.55 122.68 125.57 121.98 125.57C119.81 125.57 117.65 125.41 115.54 125.08C103.45 123.19 92.6504 116.04 86.1904 105.23C82.9704 99.84 81.0604 93.92 80.5004 87.63C78.4604 64.77 95.4104 44.5 118.28 42.46C129.34 41.48 140.13 44.87 148.67 52.02C155.26 57.53 159.89 64.76 162.12 72.85V72.86Z" fill="#1D1D1B"/>
<path d="M3.88 264.27C4.26 264.56 4.79999 264.94 5.48999 265.42C6.17999 265.9 7.59 266.52 9.72 267.28C11.84 268.04 13.96 268.43 16.06 268.43C18.88 268.43 20.97 267.89 22.33 266.82C23.69 265.74 24.37 264.3 24.37 262.48C24.37 260.81 23.7 259.46 22.36 258.43C21.02 257.4 18.44 256.31 14.62 255.17C9.6 253.69 5.97 251.99 3.72 250.08C1.47 248.17 0.349991 245.59 0.349991 242.34C0.349991 238.56 1.72 235.58 4.47 233.38C7.22 231.18 11.1 230.08 16.12 230.08C19.27 230.08 22.1 230.45 24.61 231.19C27.12 231.93 28.83 232.66 29.73 233.38L31.09 234.46L27.22 240.27C26.93 239.98 26.49 239.65 25.89 239.27C25.29 238.89 24.04 238.36 22.13 237.69C20.22 237.02 18.21 236.69 16.11 236.69C13.62 236.69 11.68 237.16 10.27 238.09C8.86 239.02 8.16 240.35 8.16 242.07C8.16 243.5 8.83 244.67 10.17 245.58C11.51 246.49 14.02 247.49 17.7 248.59C22.91 250.07 26.64 251.84 28.88 253.89C31.13 255.94 32.25 258.64 32.25 261.99C32.25 265.81 30.87 268.94 28.13 271.38C25.39 273.82 21.43 275.04 16.27 275.04C14.22 275.04 12.24 274.86 10.36 274.5C8.47 274.14 6.92999 273.69 5.73999 273.14C4.53999 272.59 3.49 272.05 2.59 271.53C1.68 271 1.03999 270.55 0.649994 270.17L0 269.67L3.87 264.29L3.88 264.27Z" fill="#E30613"/>
<path d="M60.6592 270.43C57.6992 273.3 54.0192 274.73 49.6192 274.73C45.2192 274.73 41.6192 273.3 38.6492 270.43C35.6892 267.56 34.1992 263.79 34.1992 259.1C34.1992 254.41 35.6792 250.53 38.6492 247.6C41.6092 244.66 45.2692 243.19 49.6192 243.19C53.9692 243.19 57.6392 244.67 60.6192 247.63C63.6092 250.59 65.0992 254.42 65.0992 259.1C65.0992 263.78 63.6192 267.56 60.6592 270.43ZM55.7792 266.38C57.3992 264.54 58.2192 262.09 58.2192 259.03C58.2192 255.97 57.3992 253.5 55.7492 251.61C54.0992 249.72 52.0592 248.78 49.6192 248.78C47.1792 248.78 45.1392 249.72 43.4892 251.61C41.8392 253.5 41.0192 255.97 41.0192 259.03C41.0192 262.09 41.8292 264.54 43.4592 266.38C45.0892 268.22 47.1392 269.14 49.6192 269.14C52.0992 269.14 54.1592 268.22 55.7892 266.38H55.7792Z" fill="#E30613"/>
<path d="M69.1191 230.65H76.1491V274.02H69.1191V230.65Z" fill="#E30613"/>
<path d="M82.5608 237.17C81.7208 236.36 81.3008 235.35 81.3008 234.16C81.3008 232.97 81.7208 231.96 82.5608 231.15C83.4008 230.34 84.4108 229.93 85.6108 229.93C86.8108 229.93 87.8908 230.34 88.7308 231.15C89.5708 231.96 89.9808 232.97 89.9808 234.16C89.9808 235.35 89.5608 236.36 88.7308 237.17C87.9008 237.98 86.8508 238.39 85.6108 238.39C84.3708 238.39 83.4008 237.98 82.5608 237.17ZM82.0908 243.91H89.1208V274.02H82.0908V243.91Z" fill="#E30613"/>
<path d="M116.791 247.42V230.65H123.821V274.02H119.091L118.021 269.58H117.731C117.681 269.72 117.571 269.91 117.411 270.15C117.241 270.39 116.871 270.79 116.301 271.37C115.731 271.94 115.081 272.46 114.361 272.91C113.641 273.36 112.651 273.78 111.391 274.16C110.121 274.54 108.751 274.73 107.271 274.73C103.211 274.73 99.8507 273.28 97.2007 270.39C94.5507 267.5 93.2207 263.69 93.2207 258.96C93.2207 254.23 94.5307 250.54 97.1607 247.6C99.7907 244.66 103.091 243.19 107.051 243.19C109.201 243.19 111.061 243.55 112.641 244.27C114.221 244.99 115.271 245.68 115.791 246.35L116.511 247.43H116.801L116.791 247.42ZM114.821 251.69C113.221 249.9 111.181 249 108.691 249C106.201 249 104.251 249.93 102.671 251.8C101.091 253.66 100.301 256.05 100.301 258.97C100.301 261.89 101.091 264.28 102.671 266.14C104.251 268 106.251 268.94 108.691 268.94C111.131 268.94 113.161 268.03 114.781 266.22C116.401 264.4 117.221 261.99 117.221 258.98C117.221 255.97 116.421 253.5 114.821 251.7V251.69Z" fill="#E30613"/>
<path d="M152.56 248.35L153.63 243.91H158.36V274.02H153.63L152.56 269.58H152.27C152.22 269.72 152.11 269.91 151.95 270.15C151.78 270.39 151.41 270.79 150.84 271.37C150.27 271.94 149.62 272.46 148.9 272.91C148.18 273.36 147.19 273.78 145.93 274.16C144.66 274.54 143.29 274.73 141.81 274.73C137.75 274.73 134.39 273.28 131.74 270.39C129.09 267.5 127.76 263.69 127.76 258.96C127.76 254.23 129.09 250.54 131.74 247.6C134.39 244.66 137.7 243.19 141.67 243.19C143.15 243.19 144.54 243.37 145.83 243.73C147.12 244.09 148.15 244.52 148.91 245.02C149.67 245.52 150.32 246.02 150.85 246.52C151.38 247.02 151.73 247.44 151.92 247.77L152.28 248.34H152.57L152.56 248.35ZM149.37 251.68C147.77 249.89 145.73 248.99 143.24 248.99C140.75 248.99 138.8 249.92 137.22 251.79C135.64 253.65 134.85 256.04 134.85 258.96C134.85 261.88 135.64 264.27 137.22 266.13C138.8 267.99 140.8 268.93 143.24 268.93C145.68 268.93 147.71 268.02 149.33 266.21C150.95 264.39 151.77 261.98 151.77 258.97C151.77 255.96 150.97 253.49 149.37 251.69V251.68Z" fill="#E30613"/>
<path d="M180.16 249.71H178.51C176.46 249.71 174.72 250.4 173.31 251.79C171.9 253.18 171.17 254.94 171.12 257.09V274.01H164.09V243.9H168.68L169.54 248.7H169.9C171.52 245.45 174.39 243.83 178.5 243.83H180.15V249.71H180.16Z" fill="#E30613"/>
<path d="M182.99 237.17C182.15 236.36 181.74 235.35 181.74 234.16C181.74 232.97 182.16 231.96 182.99 231.15C183.82 230.34 184.84 229.93 186.04 229.93C187.24 229.93 188.32 230.34 189.16 231.15C190 231.96 190.41 232.97 190.41 234.16C190.41 235.35 189.99 236.36 189.16 237.17C188.32 237.98 187.28 238.39 186.04 238.39C184.8 238.39 183.83 237.98 182.99 237.17ZM182.53 243.91H189.56V274.02H182.53V243.91Z" fill="#E30613"/>
<path d="M197.579 243.91V234.73H204.599V243.91H212.699V249.43H204.599V264.7C204.599 267.38 205.869 268.71 208.399 268.71C208.969 268.71 209.569 268.61 210.189 268.42C210.809 268.23 211.289 268.04 211.619 267.85L212.119 267.56L214.199 272.51C212.099 273.99 209.679 274.73 206.959 274.73C203.809 274.73 201.449 273.85 199.899 272.08C198.349 270.31 197.569 267.9 197.569 264.84V249.43H192.189V243.91H197.569H197.579Z" fill="#E30613"/>
<path d="M241.17 271.29C240.93 271.58 240.55 271.91 240.02 272.29C239.49 272.67 238.28 273.2 236.36 273.87C234.44 274.54 232.37 274.87 230.12 274.87C225.29 274.87 221.46 273.4 218.61 270.46C215.76 267.52 214.34 263.71 214.34 259.03C214.34 254.35 215.69 250.65 218.39 247.67C221.09 244.68 224.61 243.19 228.96 243.19C233.31 243.19 236.62 244.56 239.03 247.31C241.44 250.06 242.65 253.68 242.65 258.17L242.58 260.03H221.22C221.41 262.99 222.33 265.25 223.98 266.8C225.63 268.35 227.81 269.13 230.54 269.13C232.07 269.13 233.5 268.92 234.84 268.48C236.18 268.05 237.13 267.6 237.71 267.12L238.64 266.47L241.15 271.27L241.17 271.29ZM221.53 255.38H235.65C235.12 250.89 232.86 248.64 228.84 248.64C224.82 248.64 222.29 250.89 221.53 255.38ZM231.35 238.39H226.55L230.28 228L238.45 228.93L231.35 238.39Z" fill="#E30613"/>
<path d="M30 329.87V286.86H37.1V323.56H58.25V329.87H30.01H30Z" fill="#1D1D1B"/>
<path d="M83.1887 304.21L84.2587 299.76H88.9886V329.87H84.2587L83.1887 325.43H82.8987C82.8487 325.57 82.7386 325.76 82.5786 326C82.4086 326.24 82.0387 326.65 81.4687 327.22C80.8987 327.79 80.2487 328.31 79.5287 328.76C78.8087 329.21 77.8187 329.63 76.5587 330.01C75.2887 330.39 73.9187 330.58 72.4387 330.58C68.3787 330.58 65.0187 329.13 62.3687 326.24C59.7187 323.35 58.3887 319.54 58.3887 314.81C58.3887 310.08 59.7187 306.39 62.3687 303.45C65.0187 300.51 68.3286 299.04 72.2986 299.04C73.7786 299.04 75.1686 299.22 76.4586 299.58C77.7486 299.94 78.7787 300.37 79.5387 300.87C80.2987 301.37 80.9487 301.87 81.4787 302.38C82.0087 302.89 82.3586 303.3 82.5486 303.63L82.9087 304.2H83.1987L83.1887 304.21ZM79.9987 307.54C78.3987 305.75 76.3587 304.85 73.8687 304.85C71.3787 304.85 69.4287 305.78 67.8487 307.65C66.2687 309.51 65.4787 311.9 65.4787 314.82C65.4787 317.74 66.2687 320.12 67.8487 321.99C69.4287 323.85 71.4287 324.79 73.8687 324.79C76.3087 324.79 78.3386 323.88 79.9586 322.07C81.5786 320.25 82.3987 317.84 82.3987 314.83C82.3987 311.82 81.5987 309.35 79.9987 307.55V307.54Z" fill="#1D1D1B"/>
<path d="M89.7503 286.18C90.5403 285.39 91.4403 285 92.4403 285C93.4903 285 94.4103 285.39 95.2003 286.18C95.9903 286.97 96.3803 287.89 96.3803 288.94C96.3803 289.99 95.9903 290.91 95.2003 291.7C94.4103 292.49 93.4903 292.88 92.4403 292.88C91.3903 292.88 90.5403 292.49 89.7503 291.7C88.9603 290.91 88.5703 289.99 88.5703 288.94C88.5703 287.89 88.9603 286.97 89.7503 286.18ZM94.8003 299.76H101.83V329.87H94.8003V299.76V299.76ZM101.97 286.18C102.73 285.39 103.62 285 104.62 285C105.62 285 106.58 285.39 107.34 286.18C108.1 286.97 108.49 287.89 108.49 288.94C108.49 289.99 108.11 290.91 107.34 291.7C106.57 292.49 105.67 292.88 104.62 292.88C103.57 292.88 102.73 292.49 101.97 291.7C101.2 290.91 100.82 289.99 100.82 288.94C100.82 287.89 101.2 286.97 101.97 286.18Z" fill="#1D1D1B"/>
<path d="M136.52 341.05H129.49V326H129.2C129.15 326.14 129.07 326.31 128.95 326.5C128.83 326.69 128.52 327.05 128.02 327.58C127.52 328.11 126.94 328.57 126.3 328.98C125.66 329.39 124.75 329.76 123.58 330.09C122.41 330.42 121.13 330.59 119.75 330.59C115.78 330.59 112.48 329.12 109.86 326.18C107.23 323.24 105.92 319.45 105.92 314.82C105.92 310.19 107.25 306.28 109.9 303.39C112.55 300.5 115.91 299.05 119.97 299.05C121.5 299.05 122.9 299.24 124.16 299.62C125.43 300 126.43 300.46 127.17 300.98C127.91 301.51 128.55 302.04 129.07 302.59C129.59 303.14 129.95 303.61 130.15 303.99L130.44 304.56H130.8L131.8 299.76H136.53V341.05H136.52ZM127.49 307.57C125.87 305.75 123.84 304.85 121.4 304.85C118.96 304.85 116.95 305.78 115.38 307.65C113.8 309.51 113.01 311.9 113.01 314.82C113.01 317.74 113.8 320.12 115.38 321.99C116.96 323.85 118.96 324.79 121.4 324.79C123.84 324.79 125.93 323.89 127.53 322.1C129.13 320.31 129.93 317.88 129.93 314.82C129.93 311.76 129.12 309.4 127.49 307.58V307.57Z" fill="#1D1D1B"/>
<path d="M163.19 299.76H170.22V329.87H165.63L164.41 325.71H164.12C161.92 328.96 158.62 330.59 154.23 330.59C150.36 330.59 147.34 329.36 145.16 326.9C142.99 324.44 141.9 321.15 141.9 317.04V299.76H148.93V316.39C148.93 318.87 149.52 320.88 150.69 322.41C151.86 323.94 153.57 324.7 155.81 324.7C158.05 324.7 159.97 323.92 161.26 322.37C162.55 320.82 163.2 319.16 163.2 317.39V299.76H163.19Z" fill="#1D1D1B"/>
<path d="M200.9 327.15C200.66 327.44 200.28 327.77 199.75 328.15C199.22 328.53 198.01 329.06 196.09 329.73C194.17 330.4 192.1 330.73 189.85 330.73C185.02 330.73 181.19 329.26 178.34 326.32C175.5 323.38 174.07 319.57 174.07 314.89C174.07 310.21 175.42 306.51 178.12 303.53C180.82 300.54 184.34 299.05 188.69 299.05C193.04 299.05 196.35 300.42 198.76 303.17C201.17 305.92 202.38 309.54 202.38 314.03L202.31 315.89H180.95C181.14 318.85 182.06 321.11 183.71 322.66C185.36 324.21 187.54 324.99 190.27 324.99C191.8 324.99 193.23 324.78 194.57 324.35C195.91 323.92 196.86 323.47 197.44 322.99L198.37 322.34L200.88 327.14L200.9 327.15ZM181.26 311.23H195.38C194.85 306.74 192.59 304.49 188.57 304.49C184.55 304.49 182.02 306.74 181.26 311.23Z" fill="#1D1D1B"/>
</svg>
